#!OML:ASF I:\Actors\actors\Patient Classification 1\Patient 1\Session 1\Subject1.ASF
:FULLY-SPECIFIED
:DEGREES
384
root -0.541486 17.5477 9.553 2.04529 25.5866 -10.9824
lowerback 7.53473 4.39064 8.07508
upperback 3.94093 6.37462 -2.79159
thorax 1.12969 3.41657 -7.8049
lowerneck -6.09577 -12.1724 -11.5941
upperneck 21.3921 -19.717 19.5791
head 11.1592 -8.3894 6.35923
rclavicle 6.0033e-014 0
rhumerus -98.6902 26.0324 -110.236
rradius 113.893
rwrist 6.27405
rhand 52.8227 -34.4021
rfingers 7.12502
rthumb 71.6798 -23.865
lclavicle 6.0033e-014 0
lhumerus -101.896 -9.35491 134.181
lradius 92.1778
lwrist 42.9084
lhand 4.78018 3.89197
lfingers 7.12502
lthumb 30.1603 31.4501
rfemur -5.57821 6.786 33.8334
rtibia 16.3756
rfoot -22.8952 -30.8271
rtoes 12.6699
lfemur -9.5092 -28.0777 2.84578
ltibia 4.26087
lfoot -7.42901 11.9877
ltoes -27.1804
385
root -0.535569 17.5495 9.55043 2.0849 25.4721 -11.0779
lowerback 7.20395 4.34188 7.96759
upperback 4.2263 6.27289 -2.45922
thorax 1.53962 3.38575 -7.34073
lowerneck -6.1974 -12.0915 -11.5562
upperneck 21.2605 -19.5756 19.595
head 11.1001 -8.31986 6.3745
rclavicle -8.62725e-014 2.06736e-014
rhumerus -98.5665 26.4625 -109.594
rradius 113.977
rwrist 4.97493
rhand 52.743 -36.2849
rfingers 7.12502
rthumb 71.6346 -25.9457
lclavicle -8.62725e-014 2.06736e-014
lhumerus -103.364 -9.53168 134.326
lradius 93.0005
lwrist 37.2495
lhand 7.0912 0.836475
lfingers 7.12502
lthumb 32.3625 27.969
rfemur -5.67151 6.84288 33.8845
rtibia 16.4371
rfoot -22.9788 -30.6731
rtoes 12.9047
lfemur -9.51436 -28.1354 2.93612
ltibia 4.23624
lfoot -7.39062 12.1647
ltoes -27.2838
386
root -0.531424 17.5517 9.54799 2.13042 25.4053 -11.1834
lowerback 6.85494 4.34757 7.88179
upperback 4.49017 6.24285 -2.11857
thorax 1.95327 3.38876 -6.88369
lowerneck -6.25245 -12.0771 -11.3709
upperneck 21.1607 -19.5312 19.5128
head 11.0332 -8.29159 6.31459
rclavicle 2.98177e-014 2.14687e-014
rhumerus -98.7096 26.6653 -109.404
rradius 114.138
rwrist 2.79272
rhand 49.9764 -39.8546
rfingers 7.12502
rthumb 69.9362 -35.7921
lclavicle 2.98177e-014 2.14687e-014
lhumerus -104.605 -10.4156 132.921
lradius 93.4488
lwrist 39.0348
lhand 7.41639 1.47411
lfingers 7.12502
lthumb 32.672 28.543
rfemur -5.74277 6.89323 33.9462
rtibia 16.4162
rfoot -23.0329 -30.547
rtoes 13.1109
lfemur -9.54603 -28.3115 3.0529
ltibia 4.20167
lfoot -7.31767 12.4375
ltoes -27.5663
387
root -0.526799 17.5535 9.54249 2.17993 25.354 -11.315
lowerback 6.61478 4.32041 7.78478
upperback 4.65136 6.17672 -1.73931
thorax 2.18669 3.35928 -6.39805
lowerneck -6.32044 -12.0131 -11.1583
upperneck 21.2324 -19.4304 19.3581
head 11.0098 -8.23145 6.23945
rclavicle -5.00937e-014 -2.38542e-014
rhumerus -98.1311 27.1074 -107.806
rradius 114.105
rwrist 4.11036
rhand 54.5353 -37.5539
rfingers 7.12502
rthumb 72.5935 -22.5194
lclavicle -5.00937e-014 -2.38542e-014
lhumerus -106.421 -11.113 132.409
lradius 94.2096
lwrist 36.4288
lhand 8.98616 -0.50737
lfingers 7.12502
lthumb 34.1641 26.2398
rfemur -5.82539 6.8485 34.0139
rtibia 16.3545
rfoot -22.945 -30.3964
rtoes 12.9247
lfemur -9.61432 -28.6351 3.19996
ltibia 4.18476
lfoot -7.24465 12.8785
ltoes -27.6728
388
root -0.522576 17.5543 9.53351 2.21227 25.3257 -11.4802
lowerback 6.51681 4.20942 7.66006
upperback 4.7235 6.00894 -1.29826
thorax 2.22159 3.26478 -5.85207
lowerneck -6.42234 -11.876 -11.1015
upperneck 21.4558 -19.2492 19.2767
head 11.0622 -8.13089 6.236
rclavicle -6.0033e-014 1.90833e-014
rhumerus -97.9196 27.6816 -106.702
rradius 114.123
rwrist 4.18134
rhand 56.6048 -37.5054
rfingers 7.12502
rthumb 73.5323 -16.4088
lclavicle -6.0033e-014 1.90833e-014
lhumerus -108.023 -11.9222 131.032
lradius 94.8956
lwrist 36.5859
lhand 10.0666 -1.19424
lfingers 7.12502
lthumb 35.1895 25.3173
rfemur -5.90775 6.74125 34.1114
rtibia 16.2904
rfoot -22.9139 -30.2
rtoes 12.9778
lfemur -9.72823 -28.9364 3.39517
ltibia 4.1998
lfoot -7.25762 13.2864
ltoes -27.4176
389
root -0.519719 17.5557 9.5228 2.24974 25.2561 -11.6332
lowerback 6.49929 4.12452 7.54373
upperback 4.77767 5.88321 -0.861199
thorax 2.20455 3.18947 -5.32578
lowerneck -6.48249 -11.7659 -11.0134
upperneck 21.557 -19.0971 19.2149
head 11.0654 -8.04842 6.22722
rclavicle -1.70955e-014 1.43125e-014
rhumerus -97.6851 28.2121 -105.605
rradius 114.171
rwrist 3.57009
rhand 57.3755 -38.3948
rfingers 7.12502
rthumb 73.8297 -14.8696
lclavicle -1.70955e-014 1.43125e-014
lhumerus -109.742 -12.7773 130.175
lradius 95.5626
lwrist 33.8431
lhand 11.7942 -3.87804
lfingers 7.12502
lthumb 36.826 22.2312
rfemur -5.99134 6.69204 34.2078
rtibia 16.2367
rfoot -22.9486 -30.0046
rtoes 13.2324
lfemur -9.81581 -29.2019 3.57714
ltibia 4.19778
lfoot -7.3063 13.7044
ltoes -27.0328
390
root -0.520474 17.5583 9.51134 2.32758 25.1652 -11.7614
lowerback 6.56232 4.07762 7.39677
upperback 4.77801 5.81521 -0.491759
thorax 2.10144 3.13918 -4.86538
lowerneck -6.50041 -11.705 -10.6569
upperneck 21.5335 -19.0097 19.0624
head 10.985 -7.99094 6.12607
rclavicle -1.82882e-014 2.22639e-014
rhumerus -97.3367 28.5019 -104.584
rradius 114.184
rwrist 2.75042
rhand 57.5917 -39.3171
rfingers 7.12502
rthumb 73.9076 -15.0946
lclavicle -1.82882e-014 2.22639e-014
lhumerus -111.262 -14.2698 128.645
lradius 95.9347
lwrist 34.4998
lhand 12.5464 -4.36188
lfingers 7.12502
lthumb 37.5373 21.5618
rfemur -6.12027 6.69597 34.2918
rtibia 16.1823
rfoot -22.9234 -29.8517
rtoes 13.2959
lfemur -9.94857 -29.3101 3.77755
ltibia 4.2024
lfoot -7.26969 13.9815
ltoes -26.8938
391
root -0.523647 17.562 9.49701 2.44691 25.0915 -11.885
lowerback 6.68025 4.00763 7.20325
upperback 4.72511 5.72064 -0.131222
thorax 1.90607 3.07034 -4.39694
lowerneck -6.60327 -11.6464 -10.1317
upperneck 21.5757 -18.9143 18.736
head 10.9053 -7.92285 5.93122
rclavicle 8.62725e-014 -2.70347e-014
rhumerus -97.0177 28.7417 -103.715
rradius 114.163
rwrist 1.63241
rhand 57.2675 -40.2539
rfingers 7.12502
rthumb 73.7898 -17.0744
lclavicle 8.62725e-014 -2.70347e-014
lhumerus -112.808 -16.0175 127.323
lradius 96.1647
lwrist 35.2232
lhand 13.5941 -5.50343
lfingers 7.12502
lthumb 38.5267 20.1505
rfemur -6.3149 6.63522 34.3681
rtibia 16.1406
rfoot -22.7891 -29.6996
rtoes 13.0519
lfemur -10.1813 -29.2833 4.03165
ltibia 4.23567
lfoot -7.20683 14.1057
ltoes -26.9823
392
root -0.524678 17.5653 9.47889 2.58482 24.9572 -12.0468
lowerback 6.82561 3.88246 6.82595
upperback 4.59989 5.548 0.395925
thorax 1.57584 2.94955 -3.66081
lowerneck -6.83558 -11.4987 -9.86701
upperneck 22.0264 -18.7 18.3191
head 11.0005 -7.79987 5.77273
rclavicle -7.196e-014 -3.89618e-014
rhumerus -96.8034 29.364 -102.607
rradius 114.093
rwrist 0.784433
rhand 56.9963 -40.991
rfingers 7.12502
rthumb 73.6871 -18.672
lclavicle -7.196e-014 -3.89618e-014
lhumerus -113.953 -17.4365 126.095
lradius 96.0698
lwrist 35.4386
lhand 14.9484 -6.76884
lfingers 7.12502
lthumb 39.8031 18.5163
rfemur -6.55481 6.54743 34.4682
rtibia 16.107
rfoot -22.5568 -29.5005
rtoes 12.3328
lfemur -10.428 -29.3128 4.33114
ltibia 4.26148
lfoot -7.15988 14.3549
ltoes -27.0143
393
root -0.522338 17.568 9.45957 2.73764 24.6925 -12.213
lowerback 7.02292 3.64954 6.01481
upperback 4.3587 5.21863 1.16299
thorax 1.02199 2.73197 -2.44567
lowerneck -6.90895 -11.1754 -9.67471
upperneck 22.5188 -18.1657 17.6349
head 11.0003 -7.57107 5.59073
rclavicle -5.60573e-014 1.98785e-015
rhumerus -96.8764 30.6513 -101.337
rradius 114.026
rwrist 0.329097
rhand 56.159 -46.0771
rfingers 7.12502
rthumb 73.3468 -26.3441
lclavicle -5.60573e-014 1.98785e-015
lhumerus -114.547 -18.2071 124.669
lradius 95.6878
lwrist 35.6001
lhand 16.5501 -7.9496
lfingers 7.12502
lthumb 41.3087 16.8679
rfemur -6.76854 6.58972 34.5619
rtibia 16.0115
rfoot -22.3349 -29.2691
rtoes 11.8447
lfemur -10.5655 -29.4744 4.60612
ltibia 4.19383
lfoot -7.06123 14.8551
ltoes -26.846
